<?xml version="1.0" encoding="UTF-8" standalone="no"?>
<!-- Created with Inkscape (http://www.inkscape.org/) -->
<svg height="128" width="128" xmlns="http://www.w3.org/2000/svg" xmlns:xlink="http://www.w3.org/1999/xlink">
  <defs>
    <linearGradient id="linearGradient7226">
      <stop offset="0" stop-color="#fff"/>
      <stop offset=".5" stop-color="#fff" stop-opacity=".608541"/>
      <stop offset="1" stop-color="#fff" stop-opacity="0"/>
    </linearGradient>
    <linearGradient id="linearGradient3477">
      <stop offset="0" stop-color="#fff"/>
      <stop offset="1" stop-color="#aeaeae"/>
    </linearGradient>
    <filter id="filter4231">
      <feGaussianBlur stdDeviation="1.0971168"/>
    </filter>
    <linearGradient id="linearGradient4956" gradientTransform="matrix(.123298 0 0 .153457 76.21577 169.2063)" gradientUnits="userSpaceOnUse" x1="399.77466" x2="399.77466" y1="731.09662" y2="549.06134">
      <stop offset="0" stop-color="#cbcbcd"/>
      <stop offset=".5" stop-color="#e0e0e2"/>
      <stop offset="1" stop-color="#f2f2f2"/>
    </linearGradient>
    <linearGradient id="linearGradient4958" gradientTransform="matrix(.12333 0 0 .152975 161.5176 240.3719)" gradientUnits="userSpaceOnUse" x1="297.94482" x2="168.35521" y1="723.46216" y2="435.02948">
      <stop offset="0" stop-color="#dededf"/>
      <stop offset="1" stop-color="#bbbcbe" stop-opacity="0"/>
    </linearGradient>
    <linearGradient id="linearGradient4960" gradientTransform="matrix(.12333 0 0 .152975 170.8559 239.269)" gradientUnits="userSpaceOnUse" x1="-556.60114" x2="-556.60114" y1="-.209811" y2="855.81775">
      <stop offset="0" stop-color="#fff"/>
      <stop offset=".81364954" stop-color="#fff"/>
      <stop offset=".82474351" stop-color="#b1b1b1"/>
      <stop offset="1" stop-color="#636363"/>
    </linearGradient>
    <radialGradient id="radialGradient5031" cx="1055.3002" cy="-478.60516" fx="1055.3754" fy="-480.427" gradientTransform="matrix(.9755103 -.0251103 .01449854 .5838665 -906.51728 348.7922)" gradientUnits="userSpaceOnUse" r="5.060289" xlink:href="#linearGradient7226"/>
    <radialGradient id="radialGradient5034" cx="1055.3002" cy="-478.60516" fx="1055.1852" fy="-476.07501" gradientTransform="matrix(.6775104 0 0 .6897691 -598.93997 374.1823)" gradientUnits="userSpaceOnUse" r="5.060289">
      <stop offset="0" stop-color="#e7e7e7"/>
      <stop offset="1" stop-color="#dbdbdb"/>
    </radialGradient>
    <radialGradient id="radialGradient5037" cx="1055.3002" cy="-478.60516" fx="1055.3754" fy="-480.427" gradientTransform="matrix(1.0360261 -.02666699 .01539796 .6200625 -969.94893 367.97469)" gradientUnits="userSpaceOnUse" r="5.060289" xlink:href="#linearGradient7226"/>
    <radialGradient id="radialGradient5040" cx="1055.3002" cy="-478.60516" gradientTransform="matrix(.7700573 0 0 .7839903 -696.64146 419.24974)" gradientUnits="userSpaceOnUse" r="5.060289">
      <stop offset="0"/>
      <stop offset="1" stop-opacity="0"/>
    </radialGradient>
    <filter id="filter5377" height="1.435285" width="1.291981" x="-.145991" y="-.217642">
      <feGaussianBlur stdDeviation="4.9270631"/>
    </filter>
    <radialGradient id="radialGradient5425" cx="1055.3002" cy="-478.60516" fx="1055.1852" fy="-476.07501" gradientTransform="matrix(.6775104 0 0 .6897691 -598.93997 374.1823)" gradientUnits="userSpaceOnUse" r="5.060289">
      <stop offset="0" stop-color="#fff"/>
      <stop offset=".0626" stop-color="#e6f9ff"/>
      <stop offset=".1386" stop-color="#cef2ff"/>
      <stop offset=".1854" stop-color="#c5f0ff"/>
      <stop offset="1" stop-color="#1d74d9"/>
    </radialGradient>
    <radialGradient id="radialGradient5433" cx="1055.3002" cy="-478.60516" fx="1055.1852" fy="-476.07501" gradientTransform="matrix(.6775104 0 0 .6897691 -598.93997 374.1823)" gradientUnits="userSpaceOnUse" r="5.060289" xlink:href="#linearGradient3477"/>
    <radialGradient id="radialGradient5449" cx="1055.3002" cy="-478.60516" fx="1055.1852" fy="-476.07501" gradientTransform="matrix(.6775104 0 0 .6897691 -598.93997 374.1823)" gradientUnits="userSpaceOnUse" r="5.060289">
      <stop offset="0" stop-color="#f8f8f8"/>
      <stop offset="1" stop-color="#a4a4a4"/>
    </radialGradient>
    <filter id="filter4321">
      <feGaussianBlur stdDeviation="2.3354601"/>
    </filter>
    <linearGradient id="linearGradient4333" gradientUnits="userSpaceOnUse" x1="202.44987" x2="202.44987" xlink:href="#linearGradient3477" y1="335.07404" y2="276.20297"/>
    <linearGradient id="linearGradient4347" gradientUnits="userSpaceOnUse" x1="86.127388" x2="86.127388" xlink:href="#linearGradient3477" y1="310.71326" y2="276.20297"/>
  </defs>
  <path d="m6.0625 10.28125c.1391074.011366-.4384098.056354-.25.03125-.2973179 0-.5577624.138709-.6875.375-.0189221.032483-.0397937.06379-.0625.09375-.1384059.195991-.21875.48976-.21875.78125v77.40625c0 .730829.5301345 1.25 1.21875 1.25h18.09375c.249146-.001661.488569.096577.664746.272754s.274415.4156.272754.664746v27.125c0 .73084.546409 1.28125 1.21875 1.28125h94.65625c.67235 0 1.21875-.55041 1.21875-1.28125v-77.375c0-.219658-.05665-.396899-.1875-.625-.02393-.040043-.04483-.081827-.0625-.125-.13529-.343659-.38857-.53125-.6875-.53125h-16.5c-.24915.001661-.48857-.096577-.66475-.272754-.17617-.176177-.27441-.4156-.27275-.664746v-27.125c0-.222995-.05158-.442611-.125-.59375-.01329-.040895-.02373-.082662-.03125-.125-.11427-.341078-.41168-.53125-.75-.53125-.04234-.007518-.0841-.01796-.125-.03125-.1064-.01567-.17728 0-.1875 0z" style="opacity:.668317;fill:none;stroke:#000;stroke-width:3.207022;stroke-linecap:round;stroke-linejoin:round;stroke-dashoffset:4;filter:url(#filter4321)"/>
  <g transform="matrix(.8252918 0 0 .8693033 -65.08023 -212.10416)">
    <rect height="93.43602" rx="2.607015" ry="2.535507" style="opacity:.420792;fill:none;stroke:#000;stroke-width:1.893139;stroke-linecap:round;stroke-linejoin:round;stroke-dashoffset:4;filter:url(#filter4231)" width="120.32997" x="84.165688" y="254.08844"/>
    <rect fill="url(#linearGradient4956)" height="93.773827" rx="2.068033" ry="2.102477" width="120.12793" x="84.110901" y="253.53488"/>
    <rect height="93.156235" rx="2.607015" ry="2.535507" style="stroke-width:1.180621;stroke-linecap:round;stroke-linejoin:round;stroke-dashoffset:4;fill:url(#linearGradient4958);stroke:url(#linearGradient4960)" width="119.95078" x="84.312439" y="253.76636"/>
    <rect fill="url(#linearGradient4347)" height="69.020561" rx="1.312757" width="116.32249" x="86.127388" y="276.20297"/>
    <rect fill="#fff" height="67.852219" rx=".575816" width="114.89305" x="86.913101" y="277.37128"/>
  </g>
  <g opacity=".207921" transform="translate(-20 -29.4)">
    <path d="m119.897 44.027912c0 2.191042-1.74462 3.967225-3.89669 3.967225-2.15208 0-3.89673-1.776183-3.89673-3.967225 0-2.19104 1.74465-3.967225 3.89673-3.967225 2.15207 0 3.89669 1.776185 3.89669 3.967225z" fill="url(#radialGradient5040)"/>
    <path d="m118.75107 43.067917c0 1.294788-1.23162 2.344422-2.75089 2.344422-1.51926 0-2.75088-1.049634-2.75088-2.344422 0-1.294791 1.23162-2.344422 2.75088-2.344422 1.51927 0 2.75089 1.049631 2.75089 2.344422z" fill="url(#radialGradient5037)" opacity=".478814"/>
    <path d="m119.46529 44.055251c0 1.927718-1.53496 3.490438-3.4284 3.490438-1.89343 0-3.42841-1.56272-3.42841-3.490438s1.53498-3.49044 3.42841-3.49044c1.89344 0 3.4284 1.562722 3.4284 3.49044z" fill="url(#radialGradient5034)"/>
    <path d="m118.58992 42.851892c0 1.219206-1.15968 2.207565-2.5902 2.207565-1.43053 0-2.59021-.988359-2.59021-2.207565s1.15968-2.207565 2.59021-2.207565c1.43052 0 2.5902.988359 2.5902 2.207565z" fill="url(#radialGradient5031)" opacity=".478814"/>
  </g>
  <g opacity=".207921" transform="translate(-33.3 -29.4)">
    <path d="m119.897 44.027912c0 2.191042-1.74462 3.967225-3.89669 3.967225-2.15208 0-3.89673-1.776183-3.89673-3.967225 0-2.19104 1.74465-3.967225 3.89673-3.967225 2.15207 0 3.89669 1.776185 3.89669 3.967225z" fill="url(#radialGradient5040)"/>
    <path d="m118.75107 43.067917c0 1.294788-1.23162 2.344422-2.75089 2.344422-1.51926 0-2.75088-1.049634-2.75088-2.344422 0-1.294791 1.23162-2.344422 2.75088-2.344422 1.51927 0 2.75089 1.049631 2.75089 2.344422z" fill="url(#radialGradient5037)" opacity=".478814"/>
    <path d="m119.46529 44.055251c0 1.927718-1.53496 3.490438-3.4284 3.490438-1.89343 0-3.42841-1.56272-3.42841-3.490438s1.53498-3.49044 3.42841-3.49044c1.89344 0 3.4284 1.562722 3.4284 3.49044z" fill="url(#radialGradient5034)"/>
    <path d="m118.58992 42.851892c0 1.219206-1.15968 2.207565-2.5902 2.207565-1.43053 0-2.59021-.988359-2.59021-2.207565s1.15968-2.207565 2.59021-2.207565c1.43052 0 2.5902.988359 2.5902 2.207565z" fill="url(#radialGradient5031)" opacity=".478814"/>
  </g>
  <g opacity=".207921" transform="translate(-46.6 -29.4)">
    <path d="m119.897 44.027912c0 2.191042-1.74462 3.967225-3.89669 3.967225-2.15208 0-3.89673-1.776183-3.89673-3.967225 0-2.19104 1.74465-3.967225 3.89673-3.967225 2.15207 0 3.89669 1.776185 3.89669 3.967225z" fill="url(#radialGradient5040)"/>
    <path d="m118.75107 43.067917c0 1.294788-1.23162 2.344422-2.75089 2.344422-1.51926 0-2.75088-1.049634-2.75088-2.344422 0-1.294791 1.23162-2.344422 2.75088-2.344422 1.51927 0 2.75089 1.049631 2.75089 2.344422z" fill="url(#radialGradient5037)" opacity=".478814"/>
    <path d="m119.46529 44.055251c0 1.927718-1.53496 3.490438-3.4284 3.490438-1.89343 0-3.42841-1.56272-3.42841-3.490438s1.53498-3.49044 3.42841-3.49044c1.89344 0 3.4284 1.562722 3.4284 3.49044z" fill="url(#radialGradient5034)"/>
    <path d="m118.58992 42.851892c0 1.219206-1.15968 2.207565-2.5902 2.207565-1.43053 0-2.59021-.988359-2.59021-2.207565s1.15968-2.207565 2.59021-2.207565c1.43052 0 2.5902.988359 2.5902 2.207565z" fill="url(#radialGradient5031)" opacity=".478814"/>
  </g>
  <g opacity=".207921" transform="translate(-105.4 -29.4)">
    <path d="m119.897 44.027912c0 2.191042-1.74462 3.967225-3.89669 3.967225-2.15208 0-3.89673-1.776183-3.89673-3.967225 0-2.19104 1.74465-3.967225 3.89673-3.967225 2.15207 0 3.89669 1.776185 3.89669 3.967225z" fill="url(#radialGradient5040)"/>
    <path d="m118.75107 43.067917c0 1.294788-1.23162 2.344422-2.75089 2.344422-1.51926 0-2.75088-1.049634-2.75088-2.344422 0-1.294791 1.23162-2.344422 2.75088-2.344422 1.51927 0 2.75089 1.049631 2.75089 2.344422z" fill="url(#radialGradient5037)" opacity=".478814"/>
    <path d="m119.46529 44.055251c0 1.927718-1.53496 3.490438-3.4284 3.490438-1.89343 0-3.42841-1.56272-3.42841-3.490438s1.53498-3.49044 3.42841-3.49044c1.89344 0 3.4284 1.562722 3.4284 3.49044z" fill="url(#radialGradient5034)"/>
    <path d="m118.58992 42.851892c0 1.219206-1.15968 2.207565-2.5902 2.207565-1.43053 0-2.59021-.988359-2.59021-2.207565s1.15968-2.207565 2.59021-2.207565c1.43052 0 2.5902.988359 2.5902 2.207565z" fill="url(#radialGradient5031)" opacity=".478814"/>
  </g>
  <g opacity=".207921" transform="matrix(1.1556878 0 0 1.1556878 -38.059833 -36.25461)">
    <path d="m119.897 44.027912c0 2.191042-1.74462 3.967225-3.89669 3.967225-2.15208 0-3.89673-1.776183-3.89673-3.967225 0-2.19104 1.74465-3.967225 3.89673-3.967225 2.15207 0 3.89669 1.776185 3.89669 3.967225z" fill="url(#radialGradient5040)"/>
    <path d="m118.75107 43.067917c0 1.294788-1.23162 2.344422-2.75089 2.344422-1.51926 0-2.75088-1.049634-2.75088-2.344422 0-1.294791 1.23162-2.344422 2.75088-2.344422 1.51927 0 2.75089 1.049631 2.75089 2.344422z" fill="url(#radialGradient5037)" opacity=".478814"/>
    <path d="m119.46529 44.055251c0 1.927718-1.53496 3.490438-3.4284 3.490438-1.89343 0-3.42841-1.56272-3.42841-3.490438s1.53498-3.49044 3.42841-3.49044c1.89344 0 3.4284 1.562722 3.4284 3.49044z" fill="url(#radialGradient5425)"/>
    <path d="m118.58992 42.851892c0 1.219206-1.15968 2.207565-2.5902 2.207565-1.43053 0-2.59021-.988359-2.59021-2.207565s1.15968-2.207565 2.59021-2.207565c1.43052 0 2.5902.988359 2.5902 2.207565z" fill="url(#radialGradient5031)" opacity=".478814"/>
  </g>
  <g opacity=".207921" transform="matrix(1.1556878 0 0 1.1556878 -51.359833 -36.25461)">
    <path d="m119.897 44.027912c0 2.191042-1.74462 3.967225-3.89669 3.967225-2.15208 0-3.89673-1.776183-3.89673-3.967225 0-2.19104 1.74465-3.967225 3.89673-3.967225 2.15207 0 3.89669 1.776185 3.89669 3.967225z" fill="url(#radialGradient5040)"/>
    <path d="m118.75107 43.067917c0 1.294788-1.23162 2.344422-2.75089 2.344422-1.51926 0-2.75088-1.049634-2.75088-2.344422 0-1.294791 1.23162-2.344422 2.75088-2.344422 1.51927 0 2.75089 1.049631 2.75089 2.344422z" fill="url(#radialGradient5037)" opacity=".478814"/>
    <path d="m119.46529 44.055251c0 1.927718-1.53496 3.490438-3.4284 3.490438-1.89343 0-3.42841-1.56272-3.42841-3.490438s1.53498-3.49044 3.42841-3.49044c1.89344 0 3.4284 1.562722 3.4284 3.49044z" fill="url(#radialGradient5433)"/>
    <path d="m118.58992 42.851892c0 1.219206-1.15968 2.207565-2.5902 2.207565-1.43053 0-2.59021-.988359-2.59021-2.207565s1.15968-2.207565 2.59021-2.207565c1.43052 0 2.5902.988359 2.5902 2.207565z" fill="url(#radialGradient5031)" opacity=".478814"/>
  </g>
  <g opacity=".207921" transform="matrix(1.1556878 0 0 1.1556878 -64.659833 -36.25461)">
    <path d="m119.897 44.027912c0 2.191042-1.74462 3.967225-3.89669 3.967225-2.15208 0-3.89673-1.776183-3.89673-3.967225 0-2.19104 1.74465-3.967225 3.89673-3.967225 2.15207 0 3.89669 1.776185 3.89669 3.967225z" fill="url(#radialGradient5040)"/>
    <path d="m118.75107 43.067917c0 1.294788-1.23162 2.344422-2.75089 2.344422-1.51926 0-2.75088-1.049634-2.75088-2.344422 0-1.294791 1.23162-2.344422 2.75088-2.344422 1.51927 0 2.75089 1.049631 2.75089 2.344422z" fill="url(#radialGradient5037)" opacity=".478814"/>
    <path d="m119.46529 44.055251c0 1.927718-1.53496 3.490438-3.4284 3.490438-1.89343 0-3.42841-1.56272-3.42841-3.490438s1.53498-3.49044 3.42841-3.49044c1.89344 0 3.4284 1.562722 3.4284 3.49044z" fill="url(#radialGradient5433)"/>
    <path d="m118.58992 42.851892c0 1.219206-1.15968 2.207565-2.5902 2.207565-1.43053 0-2.59021-.988359-2.59021-2.207565s1.15968-2.207565 2.59021-2.207565c1.43052 0 2.5902.988359 2.5902 2.207565z" fill="url(#radialGradient5031)" opacity=".478814"/>
  </g>
  <g opacity=".207921" transform="matrix(1.1556878 0 0 1.1556878 -123.45983 -36.25461)">
    <path d="m119.897 44.027912c0 2.191042-1.74462 3.967225-3.89669 3.967225-2.15208 0-3.89673-1.776183-3.89673-3.967225 0-2.19104 1.74465-3.967225 3.89673-3.967225 2.15207 0 3.89669 1.776185 3.89669 3.967225z" fill="url(#radialGradient5040)"/>
    <path d="m118.75107 43.067917c0 1.294788-1.23162 2.344422-2.75089 2.344422-1.51926 0-2.75088-1.049634-2.75088-2.344422 0-1.294791 1.23162-2.344422 2.75088-2.344422 1.51927 0 2.75089 1.049631 2.75089 2.344422z" fill="url(#radialGradient5037)" opacity=".478814"/>
    <path d="m119.46529 44.055251c0 1.927718-1.53496 3.490438-3.4284 3.490438-1.89343 0-3.42841-1.56272-3.42841-3.490438s1.53498-3.49044 3.42841-3.49044c1.89344 0 3.4284 1.562722 3.4284 3.49044z" fill="url(#radialGradient5449)"/>
    <path d="m118.58992 42.851892c0 1.219206-1.15968 2.207565-2.5902 2.207565-1.43053 0-2.59021-.988359-2.59021-2.207565s1.15968-2.207565 2.59021-2.207565c1.43052 0 2.5902.988359 2.5902 2.207565z" fill="url(#radialGradient5031)" opacity=".478814"/>
  </g>
  <g transform="translate(-181.41925 -265.66219)"/>
  <g transform="translate(-181.41925 -265.66219)"/>
  <g opacity=".401639" transform="matrix(-.782995 0 0 .650879 -2784.8106 258.5792)"/>
  <g opacity=".401639" transform="matrix(-.782995 0 0 .650879 -2784.8106 258.5792)"/>
  <g opacity=".401639" transform="matrix(1 0 0 .650879 416.15145 265.9069)"/>
  <g opacity=".401639" transform="matrix(1 0 0 .650879 416.15145 265.9069)"/>
  <g transform="translate(-40.99425 -108.8736)"/>
  <g transform="translate(-40.99425 -108.8736)"/>
  <g opacity=".401639" transform="matrix(-.782995 0 0 .650879 -2644.3857 415.3678)"/>
  <g opacity=".401639" transform="matrix(-.782995 0 0 .650879 -2644.3857 415.3678)"/>
  <g opacity=".401639" transform="matrix(1 0 0 .650879 556.57655 422.6956)"/>
  <g opacity=".401639" transform="matrix(1 0 0 .650879 556.57655 422.6956)"/>
  <g transform="translate(-90.49425 -160.87355)"/>
  <g transform="translate(-90.49425 -160.87355)"/>
  <g opacity=".401639" transform="matrix(-.782995 0 0 .650879 -2693.8857 363.3678)"/>
  <g opacity=".401639" transform="matrix(-.782995 0 0 .650879 -2693.8857 363.3678)"/>
  <g opacity=".401639" transform="matrix(1 0 0 .650879 507.07655 370.6956)"/>
  <g opacity=".401639" transform="matrix(1 0 0 .650879 507.07655 370.6956)"/>
  <g transform="translate(-477.74425 -37.1236)"/>
  <g transform="translate(-477.74425 -37.1236)"/>
  <g opacity=".401639" transform="matrix(-.782995 0 0 .650879 -3081.1357 487.1178)"/>
  <g opacity=".401639" transform="matrix(-.782995 0 0 .650879 -3081.1357 487.1178)"/>
  <g opacity=".401639" transform="matrix(1 0 0 .650879 119.82655 494.4456)"/>
  <g opacity=".401639" transform="matrix(1 0 0 .650879 119.82655 494.4456)"/>
  <g transform="translate(-225.35205 139.2685)"/>
  <g transform="translate(-225.35205 139.2685)"/>
  <g opacity=".401639" transform="matrix(-.782995 0 0 .650879 -2828.7436 663.5099)"/>
  <g opacity=".401639" transform="matrix(-.782995 0 0 .650879 -2828.7436 663.5099)"/>
  <g opacity=".401639" transform="matrix(1 0 0 .650879 372.21865 670.8377)"/>
  <g opacity=".401639" transform="matrix(1 0 0 .650879 372.21865 670.8377)"/>
  <g transform="translate(-326.00175 -94.2951)"/>
  <g transform="translate(-326.00175 -94.2951)"/>
  <g opacity=".401639" transform="matrix(-.782995 0 0 .650879 -2929.3927 429.9463)"/>
  <g opacity=".401639" transform="matrix(-.782995 0 0 .650879 -2929.3927 429.9463)"/>
  <g opacity=".401639" transform="matrix(1 0 0 .650879 271.56905 437.2741)"/>
  <g opacity=".401639" transform="matrix(1 0 0 .650879 271.56905 437.2741)"/>
  <g transform="translate(-323.99425 -95.2199)"/>
  <g transform="translate(-323.99425 -95.2199)"/>
  <g opacity=".401639" transform="matrix(-.782995 0 0 .650879 -2927.3857 429.0215)"/>
  <g opacity=".401639" transform="matrix(-.782995 0 0 .650879 -2927.3857 429.0215)"/>
  <g opacity=".401639" transform="matrix(1 0 0 .650879 273.57655 436.3493)"/>
  <g opacity=".401639" transform="matrix(1 0 0 .650879 273.57655 436.3493)"/>
  <path d="m23.9994 91.2676v-51.332h79.998" fill="none" filter="url(#filter5377)" stroke="#000" stroke-width="3"/>
  <g transform="matrix(.8252918 0 0 .8693033 -45.08023 -182.10416)">
    <rect height="93.43602" rx="2.607015" ry="2.535507" style="opacity:.688119;fill:none;stroke:#000;stroke-width:1.893139;stroke-linecap:round;stroke-linejoin:round;stroke-dashoffset:4;filter:url(#filter4231)" width="120.32997" x="84.165688" y="254.08844"/>
    <rect fill="url(#linearGradient4956)" height="93.773827" rx="2.068033" ry="2.102477" width="120.12793" x="84.110901" y="253.53488"/>
    <rect height="93.156235" rx="2.607015" ry="2.535507" style="stroke-width:1.180621;stroke-linecap:round;stroke-linejoin:round;stroke-dashoffset:4;fill:url(#linearGradient4958);stroke:url(#linearGradient4960)" width="119.95078" x="84.312439" y="253.76636"/>
    <rect fill="url(#linearGradient4333)" height="69.020561" rx="1.312757" width="116.32249" x="86.127388" y="276.20297"/>
    <rect fill="#fff" height="67.484138" rx=".651855" width="114.82265" x="86.917503" y="277.08655"/>
  </g>
  <g transform="translate(0 .6)">
    <path d="m119.897 44.027912c0 2.191042-1.74462 3.967225-3.89669 3.967225-2.15208 0-3.89673-1.776183-3.89673-3.967225 0-2.19104 1.74465-3.967225 3.89673-3.967225 2.15207 0 3.89669 1.776185 3.89669 3.967225z" fill="url(#radialGradient5040)"/>
    <path d="m118.75107 43.067917c0 1.294788-1.23162 2.344422-2.75089 2.344422-1.51926 0-2.75088-1.049634-2.75088-2.344422 0-1.294791 1.23162-2.344422 2.75088-2.344422 1.51927 0 2.75089 1.049631 2.75089 2.344422z" fill="url(#radialGradient5037)" opacity=".478814"/>
    <path d="m119.46529 44.055251c0 1.927718-1.53496 3.490438-3.4284 3.490438-1.89343 0-3.42841-1.56272-3.42841-3.490438s1.53498-3.49044 3.42841-3.49044c1.89344 0 3.4284 1.562722 3.4284 3.49044z" fill="url(#radialGradient5034)"/>
    <path d="m118.58992 42.851892c0 1.219206-1.15968 2.207565-2.5902 2.207565-1.43053 0-2.59021-.988359-2.59021-2.207565s1.15968-2.207565 2.59021-2.207565c1.43052 0 2.5902.988359 2.5902 2.207565z" fill="url(#radialGradient5031)" opacity=".478814"/>
  </g>
  <g transform="translate(-13.3 .6)">
    <path d="m119.897 44.027912c0 2.191042-1.74462 3.967225-3.89669 3.967225-2.15208 0-3.89673-1.776183-3.89673-3.967225 0-2.19104 1.74465-3.967225 3.89673-3.967225 2.15207 0 3.89669 1.776185 3.89669 3.967225z" fill="url(#radialGradient5040)"/>
    <path d="m118.75107 43.067917c0 1.294788-1.23162 2.344422-2.75089 2.344422-1.51926 0-2.75088-1.049634-2.75088-2.344422 0-1.294791 1.23162-2.344422 2.75088-2.344422 1.51927 0 2.75089 1.049631 2.75089 2.344422z" fill="url(#radialGradient5037)" opacity=".478814"/>
    <path d="m119.46529 44.055251c0 1.927718-1.53496 3.490438-3.4284 3.490438-1.89343 0-3.42841-1.56272-3.42841-3.490438s1.53498-3.49044 3.42841-3.49044c1.89344 0 3.4284 1.562722 3.4284 3.49044z" fill="url(#radialGradient5034)"/>
    <path d="m118.58992 42.851892c0 1.219206-1.15968 2.207565-2.5902 2.207565-1.43053 0-2.59021-.988359-2.59021-2.207565s1.15968-2.207565 2.59021-2.207565c1.43052 0 2.5902.988359 2.5902 2.207565z" fill="url(#radialGradient5031)" opacity=".478814"/>
  </g>
  <g transform="translate(-26.6 .6)">
    <path d="m119.897 44.027912c0 2.191042-1.74462 3.967225-3.89669 3.967225-2.15208 0-3.89673-1.776183-3.89673-3.967225 0-2.19104 1.74465-3.967225 3.89673-3.967225 2.15207 0 3.89669 1.776185 3.89669 3.967225z" fill="url(#radialGradient5040)"/>
    <path d="m118.75107 43.067917c0 1.294788-1.23162 2.344422-2.75089 2.344422-1.51926 0-2.75088-1.049634-2.75088-2.344422 0-1.294791 1.23162-2.344422 2.75088-2.344422 1.51927 0 2.75089 1.049631 2.75089 2.344422z" fill="url(#radialGradient5037)" opacity=".478814"/>
    <path d="m119.46529 44.055251c0 1.927718-1.53496 3.490438-3.4284 3.490438-1.89343 0-3.42841-1.56272-3.42841-3.490438s1.53498-3.49044 3.42841-3.49044c1.89344 0 3.4284 1.562722 3.4284 3.49044z" fill="url(#radialGradient5034)"/>
    <path d="m118.58992 42.851892c0 1.219206-1.15968 2.207565-2.5902 2.207565-1.43053 0-2.59021-.988359-2.59021-2.207565s1.15968-2.207565 2.59021-2.207565c1.43052 0 2.5902.988359 2.5902 2.207565z" fill="url(#radialGradient5031)" opacity=".478814"/>
  </g>
  <g transform="translate(-85.4 .6)">
    <path d="m119.897 44.027912c0 2.191042-1.74462 3.967225-3.89669 3.967225-2.15208 0-3.89673-1.776183-3.89673-3.967225 0-2.19104 1.74465-3.967225 3.89673-3.967225 2.15207 0 3.89669 1.776185 3.89669 3.967225z" fill="url(#radialGradient5040)"/>
    <path d="m118.75107 43.067917c0 1.294788-1.23162 2.344422-2.75089 2.344422-1.51926 0-2.75088-1.049634-2.75088-2.344422 0-1.294791 1.23162-2.344422 2.75088-2.344422 1.51927 0 2.75089 1.049631 2.75089 2.344422z" fill="url(#radialGradient5037)" opacity=".478814"/>
    <path d="m119.46529 44.055251c0 1.927718-1.53496 3.490438-3.4284 3.490438-1.89343 0-3.42841-1.56272-3.42841-3.490438s1.53498-3.49044 3.42841-3.49044c1.89344 0 3.4284 1.562722 3.4284 3.49044z" fill="url(#radialGradient5034)"/>
    <path d="m118.58992 42.851892c0 1.219206-1.15968 2.207565-2.5902 2.207565-1.43053 0-2.59021-.988359-2.59021-2.207565s1.15968-2.207565 2.59021-2.207565c1.43052 0 2.5902.988359 2.5902 2.207565z" fill="url(#radialGradient5031)" opacity=".478814"/>
  </g>
  <g transform="matrix(1.1556878 0 0 1.1556878 -18.059833 -6.25461)">
    <path d="m119.897 44.027912c0 2.191042-1.74462 3.967225-3.89669 3.967225-2.15208 0-3.89673-1.776183-3.89673-3.967225 0-2.19104 1.74465-3.967225 3.89673-3.967225 2.15207 0 3.89669 1.776185 3.89669 3.967225z" fill="url(#radialGradient5040)"/>
    <path d="m118.75107 43.067917c0 1.294788-1.23162 2.344422-2.75089 2.344422-1.51926 0-2.75088-1.049634-2.75088-2.344422 0-1.294791 1.23162-2.344422 2.75088-2.344422 1.51927 0 2.75089 1.049631 2.75089 2.344422z" fill="url(#radialGradient5037)" opacity=".478814"/>
    <path d="m119.46529 44.055251c0 1.927718-1.53496 3.490438-3.4284 3.490438-1.89343 0-3.42841-1.56272-3.42841-3.490438s1.53498-3.49044 3.42841-3.49044c1.89344 0 3.4284 1.562722 3.4284 3.49044z" fill="url(#radialGradient5425)"/>
    <path d="m118.58992 42.851892c0 1.219206-1.15968 2.207565-2.5902 2.207565-1.43053 0-2.59021-.988359-2.59021-2.207565s1.15968-2.207565 2.59021-2.207565c1.43052 0 2.5902.988359 2.5902 2.207565z" fill="url(#radialGradient5031)" opacity=".478814"/>
  </g>
  <g transform="matrix(1.1556878 0 0 1.1556878 -31.359833 -6.25461)">
    <path d="m119.897 44.027912c0 2.191042-1.74462 3.967225-3.89669 3.967225-2.15208 0-3.89673-1.776183-3.89673-3.967225 0-2.19104 1.74465-3.967225 3.89673-3.967225 2.15207 0 3.89669 1.776185 3.89669 3.967225z" fill="url(#radialGradient5040)"/>
    <path d="m118.75107 43.067917c0 1.294788-1.23162 2.344422-2.75089 2.344422-1.51926 0-2.75088-1.049634-2.75088-2.344422 0-1.294791 1.23162-2.344422 2.75088-2.344422 1.51927 0 2.75089 1.049631 2.75089 2.344422z" fill="url(#radialGradient5037)" opacity=".478814"/>
    <path d="m119.46529 44.055251c0 1.927718-1.53496 3.490438-3.4284 3.490438-1.89343 0-3.42841-1.56272-3.42841-3.490438s1.53498-3.49044 3.42841-3.49044c1.89344 0 3.4284 1.562722 3.4284 3.49044z" fill="url(#radialGradient5433)"/>
    <path d="m118.58992 42.851892c0 1.219206-1.15968 2.207565-2.5902 2.207565-1.43053 0-2.59021-.988359-2.59021-2.207565s1.15968-2.207565 2.59021-2.207565c1.43052 0 2.5902.988359 2.5902 2.207565z" fill="url(#radialGradient5031)" opacity=".478814"/>
  </g>
  <g transform="matrix(1.1556878 0 0 1.1556878 -44.659833 -6.25461)">
    <path d="m119.897 44.027912c0 2.191042-1.74462 3.967225-3.89669 3.967225-2.15208 0-3.89673-1.776183-3.89673-3.967225 0-2.19104 1.74465-3.967225 3.89673-3.967225 2.15207 0 3.89669 1.776185 3.89669 3.967225z" fill="url(#radialGradient5040)"/>
    <path d="m118.75107 43.067917c0 1.294788-1.23162 2.344422-2.75089 2.344422-1.51926 0-2.75088-1.049634-2.75088-2.344422 0-1.294791 1.23162-2.344422 2.75088-2.344422 1.51927 0 2.75089 1.049631 2.75089 2.344422z" fill="url(#radialGradient5037)" opacity=".478814"/>
    <path d="m119.46529 44.055251c0 1.927718-1.53496 3.490438-3.4284 3.490438-1.89343 0-3.42841-1.56272-3.42841-3.490438s1.53498-3.49044 3.42841-3.49044c1.89344 0 3.4284 1.562722 3.4284 3.49044z" fill="url(#radialGradient5433)"/>
    <path d="m118.58992 42.851892c0 1.219206-1.15968 2.207565-2.5902 2.207565-1.43053 0-2.59021-.988359-2.59021-2.207565s1.15968-2.207565 2.59021-2.207565c1.43052 0 2.5902.988359 2.5902 2.207565z" fill="url(#radialGradient5031)" opacity=".478814"/>
  </g>
  <g transform="matrix(1.1556878 0 0 1.1556878 -103.45983 -6.25461)">
    <path d="m119.897 44.027912c0 2.191042-1.74462 3.967225-3.89669 3.967225-2.15208 0-3.89673-1.776183-3.89673-3.967225 0-2.19104 1.74465-3.967225 3.89673-3.967225 2.15207 0 3.89669 1.776185 3.89669 3.967225z" fill="url(#radialGradient5040)"/>
    <path d="m118.75107 43.067917c0 1.294788-1.23162 2.344422-2.75089 2.344422-1.51926 0-2.75088-1.049634-2.75088-2.344422 0-1.294791 1.23162-2.344422 2.75088-2.344422 1.51927 0 2.75089 1.049631 2.75089 2.344422z" fill="url(#radialGradient5037)" opacity=".478814"/>
    <path d="m119.46529 44.055251c0 1.927718-1.53496 3.490438-3.4284 3.490438-1.89343 0-3.42841-1.56272-3.42841-3.490438s1.53498-3.49044 3.42841-3.49044c1.89344 0 3.4284 1.562722 3.4284 3.49044z" fill="url(#radialGradient5449)"/>
    <path d="m118.58992 42.851892c0 1.219206-1.15968 2.207565-2.5902 2.207565-1.43053 0-2.59021-.988359-2.59021-2.207565s1.15968-2.207565 2.59021-2.207565c1.43052 0 2.5902.988359 2.5902 2.207565z" fill="url(#radialGradient5031)" opacity=".478814"/>
  </g>
</svg>
