<?xml version="1.0" encoding="UTF-8" standalone="no"?>
<!-- Created with Inkscape (http://www.inkscape.org/) -->
<svg height="128" width="128" xmlns="http://www.w3.org/2000/svg" xmlns:xlink="http://www.w3.org/1999/xlink">
  <defs>
    <linearGradient id="linearGradient3913">
      <stop offset="0" stop-color="#fff"/>
      <stop offset="1" stop-color="#fff" stop-opacity="0"/>
    </linearGradient>
    <linearGradient id="linearGradient4524" gradientUnits="userSpaceOnUse" x1="72" x2="72" y1="0" y2="116.40091">
      <stop offset="0" stop-color="#eeecec"/>
      <stop offset=".40000001" stop-color="#f4f4f4"/>
      <stop offset="1" stop-color="#f6f5f5"/>
    </linearGradient>
    <radialGradient id="radialGradient5988" cx="64" cy="64.004021" fx="63.793392" fy="47.274845" gradientTransform="matrix(1.6842105 -.08429519 .06886339 1.3758846 -48.197002 -18.663233)" gradientUnits="userSpaceOnUse" r="47.5" xlink:href="#linearGradient3913"/>
    <clipPath id="clipPath6093">
      <path d="m17.000001 8-.000001 112h57.5c1.675283 0 3.914297-.56468 7-3.6 8.870045-8.72523 20.24047-19.851805 27.49904-27.175957 2.44056-2.462612 3.00096-4.47117 3.00096-6.724043v-74.5z"/>
    </clipPath>
    <filter id="filter6118" height="1.241294" width="1.225275" x="-.112638" y="-.120647">
      <feGaussianBlur stdDeviation="2.3860572"/>
    </filter>
    <filter id="filter6171" height="2.025501" width="1.957419" x="-.478709" y="-.512751">
      <feGaussianBlur stdDeviation="10.140743"/>
    </filter>
    <clipPath id="clipPath3889">
      <path d="m112 82.502986c0 4.465301-2.79749 6.409952-5.27972 8.093625-5.10854 3.46508-14.939114 3.32536-20.720284 3.40638-.081 5.781159.16586 15.504599-3.29922 20.613139-1.68367 2.48224-5.29051 5.38687-8.20078 5.38687 2.31803 0 4.74284-1.33476 7.58402-4.08481 9.14197-8.84873 17.36714-16.13535 25.673154-25.297529 1.91895-2.116745 4.24283-3.641881 4.24283-8.117675z"/>
    </clipPath>
    <linearGradient gradientUnits="userSpaceOnUse" x1="86.88201248139" x2="95.70883902098" y1="93.75643919115" y2="102.58326471875">
      <stop offset="0" stop-color="#fcfcfc"/>
      <stop offset=".52275378" stop-color="#f8f8f8"/>
      <stop offset=".77457333" stop-color="#f0efef"/>
      <stop offset=".90122044" stop-color="#e3e1e1"/>
      <stop offset="1" stop-color="#cecbcb"/>
    </linearGradient>
    <linearGradient id="linearGradient3895" gradientUnits="userSpaceOnUse" x1="86.88201248139" x2="95.42764561063" y1="93.75643919115" y2="102.30207434436">
      <stop offset="0" stop-color="#fcfcfc"/>
      <stop offset=".52275378" stop-color="#f8f8f8"/>
      <stop offset=".72337759" stop-color="#f0efef"/>
      <stop offset=".89024991" stop-color="#e3e1e1"/>
      <stop offset="1" stop-color="#cecbcb"/>
    </linearGradient>
    <filter id="filter3909">
      <feGaussianBlur stdDeviation=".43040059"/>
    </filter>
    <radialGradient id="radialGradient3919" cx="90.750004025" cy="110.25296681175" gradientUnits="userSpaceOnUse" r="24.50127823847" xlink:href="#linearGradient3913"/>
    <filter id="filter3826">
      <feGaussianBlur stdDeviation="1.036"/>
    </filter>
    <filter id="filter3834">
      <feGaussianBlur stdDeviation="1.50075"/>
    </filter>
  </defs>
  <g>
    <path d="m17 8.5v112h58.1875c2.115556 0 4.528919-1.77169 7-4.25.71234-.71442 1.440746-1.39395 2.15625-2.09375.415612-.40649.832187-.81443 1.25-1.21875 7.773958-7.40962 14.98341-14.022603 22.21875-22 .42065-.420645.81207-.811101 1.15625-1.1875 1.46444-1.497657 2.76158-2.837804 2.99375-5.8625l.0375-.73125v-74.65625z" filter="url(#filter3834)" opacity=".262376"/>
    <path d="m17.000001 8-.000001 112.2h57.746418c4.168166 0 7.728581-4.85625 20.853582-17.1 7.48636-6.9837 10.43958-10.889428 13.15009-13.599933 1.74325-1.743252 3.24991-3.03751 3.24991-7.200067v-74.3z" fill-opacity=".700535" filter="url(#filter3826)"/>
    <path d="m17.000001 8-.000001 112h57.5c1.675283 0 3.914297-.56468 7-3.6 8.870045-8.72523 20.24047-19.851805 27.49904-27.175957 2.44056-2.462612 3.00096-4.47117 3.00096-6.724043v-74.5z" fill="#fff"/>
    <path d="m18.5 9c-.339844 0-.5.2346178-.5.5v107.96875c0 .82158.679323 1.5 1.5 1.5h53.6875c.05307 0 .810384.0234 1.5.0313 1.777664-.0401 3.131974-.75374 4.356035-1.59328 1.051866-.29103 20.649835-19.619593 29.770955-28.809238 1.36239-1.372621 2.18546-3.948169 2.18546-4.895612l.00005-74.20192c0-.3227174-.16322-.5-.5-.5z" fill="url(#linearGradient4524)"/>
    <path clip-path="url(#clipPath6093)" d="m114.4 82.502986c0 4.465301-4.99749 6.609952-7.47972 8.293625-5.10854 3.46508-14.739114 3.52536-20.520284 3.60638-.081 5.781159-.03414 15.304599-3.49922 20.413139-1.68367 2.48224-5.79051 8.68687-8.70078 8.68687-2.091359 1.5337 3.488204 8.21101 6.734971 5.31989 9.501888-8.46107 35.131683-30.022704 43.350823-39.262889 2.04044-2.29392-4.90514-9.844666-9.88579-7.057015z" filter="url(#filter6171)" opacity=".277228"/>
    <g transform="matrix(.333692 0 0 .333692 -610.81394 -151.23635)"/>
    <g transform="matrix(.6433923 0 0 .6433923 563.19164 120.38376)"/>
    <g transform="matrix(.6433923 0 0 .6433923 563.19164 120.38376)"/>
    <path d="m18.5 9c-.339844 0-.5.2346178-.5.5v107.96875c0 .82158.679323 1.49953 1.5 1.5l54.5.03125c.05307.00003 3.273884-.008 3.9635.00005 6.540972-4.50361 22.6373-21.953284 31.58253-30.955094 1.47685-1.656484.4576-.370067 1.45391-1.607456l.00006-76.9375c0-.3227174-.16322-.5-.5-.5z" fill="url(#radialGradient5988)" opacity=".846535"/>
    <path clip-path="url(#clipPath6093)" d="m113.9 82.502986c0 4.465301-4.49749 6.609952-6.97972 8.293625-5.10854 3.46508-14.739114 3.52536-20.520284 3.60638-.081 5.781159.76586 15.304599-2.69922 20.413139-1.68367 2.48224-5.79051 7.98687-8.70078 7.98687-2.091359 1.5337 3.488204 11.21101 6.734971 8.31989 9.501888-8.46107 45.998943-30.20138 54.218083-39.441569 2.04044-2.29392-17.0724-11.965986-22.05305-9.178335z" filter="url(#filter6118)" opacity=".40099"/>
    <path d="m112 82.502986c0 4.465301-2.79749 6.409952-5.27972 8.093625-5.10854 3.46508-14.939114 3.32536-20.720284 3.40638-.081 5.781159.16586 15.504599-3.29922 20.613139-1.68367 2.48224-5.29051 5.38687-8.20078 5.38687 2.31803 0 4.74284-1.33476 7.58402-4.08481 9.14197-8.84873 17.36714-16.13535 25.673154-25.297529 1.91895-2.116745 4.24283-3.641881 4.24283-8.117675z" fill="url(#linearGradient3895)"/>
    <path d="m112.01875 83.2125c-.31643 3.899106-3.52291 5.902807-5.85 7.48125-5.10854 3.46508-15.33758 2.32523-21.11875 2.40625-.081 5.781159.85258 16.31646-2.6125 21.425-1.473211 2.17196-4.099456 4.6601-6.7625 5.25 1.980459-.3623 3.884931-1.66139 6.26875-3.96875.339117-.38853.574297-.67895 1.10625-1.5 3.46508-5.10854 2.8315-14.51259 2.9125-20.29375 5.78117-.08102 15.81021.25883 20.91875-3.20625.46542-.315689 1.59399-1.187744 2.00625-1.6 1.53629-1.536293 2.90171-2.613421 3.13125-5.99375zm-36.34375 36.5625c-.157658.0349-.313437.0414-.46875.0625.156991-.0169.310443-.0335.46875-.0625z" fill="#fff"/>
    <path clip-path="url(#clipPath3889)" d="m117.31456 81.861283-44.675455 43.487067" fill="none" filter="url(#filter3909)" stroke="url(#radialGradient3919)" stroke-width="1.2"/>
  </g>
</svg>
