<?xml version="1.0" encoding="utf-8"?>
<!-- Generator: Adobe Illustrator 21.0.0, SVG Export Plug-In . SVG Version: 6.00 Build 0)  -->
<svg version="1.1" id="Layer_1" xmlns="http://www.w3.org/2000/svg" xmlns:xlink="http://www.w3.org/1999/xlink" x="0px" y="0px"
	 viewBox="0 0 512 512" style="enable-background:new 0 0 512 512;" xml:space="preserve">
<g>
	<path d="M451.8,128.3l-123-123c-3.4-3.4-8.1-5.4-12.9-5.4H73.1C63,0,54.9,8.2,54.9,18.3v475.4c0,10.1,8.2,18.3,18.3,18.3h365.7
		c10.1,0,18.3-8.2,18.3-18.3V141.3C457.1,136.5,455.2,131.8,451.8,128.3z M415,149.7H307.4V42.2L415,149.7z M416,470.9H96V41.1
		h172.6v123.4c0,13.3,10.7,24,24,24H416V470.9z M208.6,238.4c-1.1-2.5-3.5-4.1-6.3-4.1h-20c-3.8,0-6.9,3.1-6.9,6.9v155.4
		c0,3.8,3.1,6.9,6.9,6.9h15.5c3.8,0,6.9-3.1,6.9-6.9V296.1l38.2,85.8c1.1,2.5,3.6,4.1,6.3,4.1h13.8c2.7,0,5.1-1.6,6.3-4.1l38.2-86.1
		v100.7c0,3.8,3.1,6.9,6.9,6.9h15.5c3.8,0,6.9-3.1,6.9-6.9V241.1c0-3.8-3.1-6.9-6.9-6.9h-19.8c-2.7,0-5.2,1.6-6.3,4.1l-47.5,109.1
		L208.6,238.4z"/>
</g>
</svg>
